<?xml version="1.0" encoding="utf-8"?>
<!-- Generator: Adobe Illustrator 25.0.0, SVG Export Plug-In . SVG Version: 6.00 Build 0)  -->
<svg version="1.1" id="Camada_1" xmlns="http://www.w3.org/2000/svg" xmlns:xlink="http://www.w3.org/1999/xlink" x="0px" y="0px"
	 viewBox="0 0 1920 1080" style="enable-background:new 0 0 1920 1080;" xml:space="preserve">
<style type="text/css">
	.st0{fill:url(#SVGID_1_);}
	.st1{fill:#1A365D;}
	.st2{fill:#1D3676;}
	.st3{fill:#C5CFD9;}
	.st4{fill:#98999B;}
	.st5{fill:#7B869C;}
	.st6{fill:url(#SVGID_2_);}
	.st7{fill:#FFFFFF;}
	.st8{display:none;fill:#C5CFD9;}
	.st9{display:none;fill:#6284A0;}
</style>
<g>
	<linearGradient id="SVGID_1_" gradientUnits="userSpaceOnUse" x1="960" y1="1071.0251" x2="960" y2="30.2547">
		<stop  offset="0" style="stop-color:#1A365D"/>
		<stop  offset="1" style="stop-color:#1D4A76"/>
	</linearGradient>
	<rect class="st0" width="1920" height="1080"/>
</g>
<path class="st7" d="M2183.9,382.7l-603.4,603.4c-34.1,34.1-89.3,34.1-123.4,0L853.7,382.7c-34.1-34.1-34.1-89.3,0-123.4
	l603.4-603.4c34.1-34.1,89.3-34.1,123.4,0l603.4,603.4C2218,293.4,2218,348.6,2183.9,382.7z"/>
<rect x="201" y="421" class="st8" width="521" height="88"/>
<rect x="211" y="66" class="st9" width="216" height="88"/>
<rect x="546" y="89" class="st9" width="216" height="42"/>
<rect x="822" y="89" class="st9" width="216" height="42"/>
<rect x="1093" y="89" class="st9" width="216" height="42"/>
<rect x="1382" y="89" class="st9" width="216" height="42"/>
<rect x="201" y="534" class="st8" width="521" height="88"/>
<rect x="201" y="647" class="st8" width="521" height="88"/>
</svg>
